<?xml version="1.0" encoding="UTF-8" standalone="no"?>
<!DOCTYPE svg PUBLIC "-//W3C//DTD SVG 1.1//EN" "http://www.w3.org/Graphics/SVG/1.1/DTD/svg11.dtd">
<svg width="100%" height="100%" viewBox="0 0 6586 963" version="1.1" xmlns="http://www.w3.org/2000/svg" xmlns:xlink="http://www.w3.org/1999/xlink" xml:space="preserve" xmlns:serif="http://www.serif.com/" style="fill-rule:evenodd;clip-rule:evenodd;stroke-linejoin:round;stroke-miterlimit:2;">
    <g transform="matrix(1,0,0,1,-4421,-51915)">
        <g id="Artboard9" transform="matrix(0.943469,0,0,0.783361,11219.6,18779.8)">
            <rect x="-7205.46" y="42299.1" width="6979.21" height="1227.89" style="fill:none;"/>
            <clipPath id="_clip1">
                <rect x="-7205.46" y="42299.1" width="6979.21" height="1227.89"/>
            </clipPath>
            <g clip-path="url(#_clip1)">
                <g transform="matrix(20.3763,0,0,24.541,-20948,6983.55)">
                    <path d="M709.895,1478.42C717.445,1478.42 720.995,1472.62 720.995,1466.27L720.995,1463.82C720.995,1457.47 717.445,1451.67 709.895,1451.67C706.945,1451.67 704.745,1452.67 703.145,1454.27L703.145,1452.12L697.895,1452.12L697.895,1488.42L703.145,1488.42L703.145,1475.82C704.745,1477.42 706.945,1478.42 709.895,1478.42ZM703.145,1466.27L703.145,1463.82C703.145,1459.97 705.095,1456.62 709.445,1456.62C713.795,1456.62 715.745,1459.97 715.745,1463.82L715.745,1466.27C715.745,1470.12 713.795,1473.42 709.445,1473.42C705.095,1473.42 703.145,1470.12 703.145,1466.27Z" style="fill:white;fill-rule:nonzero;"/>
                    <path d="M726.495,1477.97L731.745,1477.97L731.745,1452.12L726.495,1452.12L726.495,1477.97ZM725.595,1445.37C725.595,1447.42 727.145,1448.92 729.145,1448.92C731.095,1448.92 732.695,1447.42 732.695,1445.37C732.695,1443.32 731.095,1441.92 729.145,1441.92C727.145,1441.92 725.595,1443.32 725.595,1445.37Z" style="fill:white;fill-rule:nonzero;"/>
                    <path d="M739.145,1477.97L744.395,1477.97L744.395,1462.82C744.395,1459.72 746.245,1456.67 750.195,1456.67C754.195,1456.67 755.945,1459.47 755.945,1462.82L755.945,1477.97L761.195,1477.97L761.195,1461.07C761.195,1455.87 757.645,1451.67 751.695,1451.67C747.995,1451.67 745.445,1453.57 744.395,1455.67L744.395,1452.12L739.145,1452.12L739.145,1477.97Z" style="fill:white;fill-rule:nonzero;"/>
                    <path d="M777.395,1478.42C783.995,1478.42 787.745,1475.17 787.745,1470.52C787.745,1466.52 785.395,1463.57 780.145,1462.62L775.845,1461.87C774.095,1461.57 772.995,1460.82 772.995,1459.32C772.995,1457.82 774.445,1456.47 777.295,1456.47C780.095,1456.47 781.895,1457.77 781.995,1460.07L787.245,1460.07C787.295,1455.32 783.745,1451.67 777.295,1451.67C771.295,1451.67 767.745,1455.12 767.745,1459.47C767.745,1463.62 770.245,1466.07 774.695,1466.87L778.795,1467.62C781.495,1468.07 782.495,1469.02 782.495,1470.52C782.495,1472.17 780.995,1473.42 777.395,1473.42C773.745,1473.42 772.095,1471.77 771.995,1469.37L766.695,1469.37C766.845,1474.97 770.845,1478.42 777.395,1478.42Z" style="fill:white;fill-rule:nonzero;"/>
                    <path d="M802.845,1478.42C807.345,1478.42 810.295,1476.37 812.495,1473.87L816.095,1477.97L822.595,1477.97L822.595,1477.47L815.695,1469.52L823.195,1458.57L823.195,1458.07L817.345,1458.07L812.295,1465.57L806.795,1459.22L807.295,1458.92C810.745,1456.77 812.895,1454.32 812.895,1450.72C812.895,1446.32 809.745,1442.52 804.245,1442.52C798.745,1442.57 795.495,1446.32 795.495,1450.72C795.495,1453.37 796.645,1455.57 798.545,1457.82L798.845,1458.17L798.545,1458.37C794.595,1460.72 791.895,1463.67 791.895,1468.22C791.895,1474.22 796.545,1478.42 802.845,1478.42ZM797.295,1468.22C797.295,1465.77 798.745,1464.22 800.945,1462.87L802.245,1462.07L809.145,1470.02C807.295,1472.22 805.445,1473.27 802.845,1473.27C799.495,1473.27 797.345,1471.12 797.295,1468.22ZM800.845,1450.72C800.845,1449.02 802.145,1447.52 804.245,1447.52C806.545,1447.52 807.645,1449.07 807.645,1450.72C807.645,1452.47 806.395,1453.67 804.695,1454.67L803.445,1455.42L803.345,1455.27C801.745,1453.47 800.845,1452.27 800.845,1450.72Z" style="fill:white;fill-rule:nonzero;"/>
                    <path d="M838.895,1478.42C845.595,1478.42 849.345,1474.07 849.945,1468.72L844.645,1468.72C844.145,1471.42 842.295,1473.42 838.895,1473.42C834.545,1473.42 832.445,1470.12 832.445,1466.27L832.445,1463.82C832.445,1459.97 834.545,1456.62 838.895,1456.62C842.545,1456.62 844.445,1458.87 844.745,1461.87L849.995,1461.87C849.595,1456.32 845.795,1451.67 838.895,1451.67C831.245,1451.67 827.195,1457.47 827.195,1463.82L827.195,1466.27C827.195,1472.62 831.245,1478.42 838.895,1478.42Z" style="fill:white;fill-rule:nonzero;"/>
                    <path d="M866.345,1478.37C873.595,1478.37 877.195,1473.47 877.195,1467.62L877.195,1452.12L871.945,1452.12L871.945,1467.47C871.945,1471.27 869.845,1473.42 866.345,1473.42C862.845,1473.42 860.745,1471.27 860.745,1467.47L860.745,1452.12L855.495,1452.12L855.495,1467.62C855.495,1473.47 859.095,1478.37 866.345,1478.37Z" style="fill:white;fill-rule:nonzero;"/>
                    <path d="M884.695,1477.97L889.945,1477.97L889.945,1463.92C889.945,1459.47 892.395,1457.37 896.095,1457.37L898.895,1457.37L898.895,1452.12L896.245,1452.12C892.645,1452.12 890.495,1454.52 889.945,1456.42L889.945,1452.12L884.695,1452.12L884.695,1477.97Z" style="fill:white;fill-rule:nonzero;"/>
                    <path d="M910.845,1477.97L916.895,1477.97L926.195,1452.62L926.195,1452.12L920.545,1452.12L913.895,1471.97L906.995,1452.12L901.395,1452.12L901.395,1452.62L910.845,1477.97Z" style="fill:white;fill-rule:nonzero;"/>
                    <path d="M940.145,1478.42C946.995,1478.42 950.545,1474.27 951.245,1469.72L945.995,1469.72C945.445,1471.97 943.595,1473.57 940.145,1473.57C936.095,1473.57 933.995,1470.92 933.895,1467.02L951.595,1467.02L951.595,1463.82C951.595,1457.57 948.095,1451.67 940.195,1451.67C932.545,1451.67 928.695,1457.57 928.695,1463.82L928.695,1466.27C928.695,1472.62 932.495,1478.42 940.145,1478.42ZM933.945,1462.52C934.295,1458.87 936.495,1456.37 940.195,1456.37C944.095,1456.37 946.095,1458.82 946.395,1462.52L933.945,1462.52Z" style="fill:white;fill-rule:nonzero;"/>
                    <path d="M966.295,1478.42C972.895,1478.42 976.645,1475.17 976.645,1470.52C976.645,1466.52 974.295,1463.57 969.045,1462.62L964.745,1461.87C962.995,1461.57 961.895,1460.82 961.895,1459.32C961.895,1457.82 963.345,1456.47 966.195,1456.47C968.995,1456.47 970.795,1457.77 970.895,1460.07L976.145,1460.07C976.195,1455.32 972.645,1451.67 966.195,1451.67C960.195,1451.67 956.645,1455.12 956.645,1459.47C956.645,1463.62 959.145,1466.07 963.595,1466.87L967.695,1467.62C970.395,1468.07 971.395,1469.02 971.395,1470.52C971.395,1472.17 969.895,1473.42 966.295,1473.42C962.645,1473.42 960.995,1471.77 960.895,1469.37L955.595,1469.37C955.745,1474.97 959.745,1478.42 966.295,1478.42Z" style="fill:white;fill-rule:nonzero;"/>
                </g>
                <g transform="matrix(1.05992,0,0,1.27655,-17845.9,-5721.55)">
                    <path d="M10302.4,38440.5L10217.4,38507.7C10217.4,38507.7 10076,38329.6 10076,38083.2C10076,37839.1 10212.1,37644.6 10212.1,37644.6L10301,37706.6C10301,37706.6 10184.4,37873.7 10184.4,38083.2C10184.4,38290.4 10302.4,38440.5 10302.4,38440.5Z" style="fill:rgb(230,198,30);"/>
                </g>
                <g transform="matrix(1.05992,0,0,1.27655,-17647.3,-7523.08)">
                    <rect x="15843.4" y="39106.5" width="108.333" height="827.053" style="fill:rgb(230,198,30);"/>
                </g>
                <g transform="matrix(0.742961,-0.894812,0.742961,0.894812,-46993,4300.96)">
                    <rect x="9835.99" y="52614.9" width="248.839" height="248.839" style="fill:rgb(230,198,30);"/>
                </g>
            </g>
        </g>
    </g>
</svg>
